M48
; DRILL file KiCad 10.0.3 date 2026-06-11T20:06:05
; FORMAT={-:-/ absolute / metric / decimal}
; #@! TF.CreationDate,2026-06-11T20:06:05-04:00
; #@! TF.GenerationSoftware,Kicad,Pcbnew,10.0.3
; #@! TF.FileFunction,Plated,1,4,PTH
FMAT,2
METRIC
; #@! TA.AperFunction,Plated,PTH,ViaDrill
T1C0.300
%
G90
G05
T1
X1.0Y30.6
X1.0Y27.4
X1.0Y18.6
X1.0Y15.4
X1.0Y6.6
X1.0Y3.4
X2.5Y30.6
X2.5Y27.4
X2.5Y18.6
X2.5Y15.4
X2.5Y6.6
X2.5Y3.4
X4.0Y30.6
X4.0Y27.4
X4.0Y18.6
X4.0Y15.4
X4.0Y6.6
X4.0Y3.4
X5.9Y30.6
X5.9Y27.4
X5.9Y18.6
X5.9Y15.4
X5.9Y6.6
X5.9Y3.4
X7.4Y30.6
X7.4Y27.4
X7.4Y18.6
X7.4Y15.4
X7.4Y6.6
X7.4Y3.4
X8.9Y30.6
X8.9Y27.4
X8.9Y18.6
X8.9Y15.4
X8.9Y6.6
X8.9Y3.4
X10.4Y30.6
X10.4Y27.4
X10.4Y18.6
X10.4Y15.4
X10.4Y6.6
X10.4Y3.4
X11.9Y30.6
X11.9Y27.4
X11.9Y18.6
X11.9Y15.4
X11.9Y6.6
X11.9Y3.4
X13.4Y30.6
X13.4Y27.4
X13.4Y18.6
X13.4Y15.4
X13.4Y6.6
X13.4Y3.4
X14.9Y30.6
X14.9Y27.4
X14.9Y18.6
X14.9Y15.4
X14.9Y6.6
X14.9Y3.4
X16.4Y30.6
X16.4Y27.4
X16.4Y18.6
X16.4Y15.4
X16.4Y6.6
X16.4Y3.4
X17.9Y30.6
X17.9Y27.4
X17.9Y18.6
X17.9Y15.4
X17.9Y6.6
X17.9Y3.4
X19.4Y30.6
X19.4Y27.4
X19.4Y18.6
X19.4Y15.4
X19.4Y6.6
X19.4Y3.4
X20.9Y30.6
X20.9Y27.4
X20.9Y18.6
X20.9Y15.4
X20.9Y6.6
X20.9Y3.4
X22.4Y30.6
X22.4Y27.4
X22.4Y18.6
X22.4Y15.4
X22.4Y6.6
X22.4Y3.4
X23.9Y30.6
X23.9Y27.4
X23.9Y18.6
X23.9Y15.4
X23.9Y6.6
X23.9Y3.4
X25.4Y30.6
X25.4Y27.4
X25.4Y18.6
X25.4Y15.4
X25.4Y6.6
X25.4Y3.4
X26.9Y30.6
X26.9Y27.4
X26.9Y18.6
X26.9Y15.4
X26.9Y6.6
X26.9Y3.4
X28.4Y30.6
X28.4Y27.4
X28.4Y18.6
X28.4Y15.4
X28.4Y6.6
X28.4Y3.4
X29.9Y30.6
X29.9Y27.4
X29.9Y18.6
X29.9Y15.4
X29.9Y6.6
X29.9Y3.4
X31.4Y30.6
X31.4Y27.4
X31.4Y18.6
X31.4Y15.4
X31.4Y6.6
X31.4Y3.4
X32.9Y30.6
X32.9Y27.4
X32.9Y18.6
X32.9Y15.4
X32.9Y6.6
X32.9Y3.4
X34.4Y30.6
X34.4Y27.4
X34.4Y18.6
X34.4Y15.4
X34.4Y6.6
X34.4Y3.4
X35.9Y30.6
X35.9Y27.4
X35.9Y18.6
X35.9Y15.4
X35.9Y6.6
X35.9Y3.4
X37.4Y30.6
X37.4Y27.4
X37.4Y18.6
X37.4Y15.4
X37.4Y6.6
X37.4Y3.4
X38.9Y30.6
X38.9Y27.4
X38.9Y18.6
X38.9Y15.4
X38.9Y6.6
X38.9Y3.4
X40.4Y30.6
X40.4Y27.4
X40.4Y18.6
X40.4Y15.4
X40.4Y6.6
X40.4Y3.4
X41.9Y30.6
X41.9Y27.4
X41.9Y18.6
X41.9Y15.4
X41.9Y6.6
X41.9Y3.4
X43.4Y30.6
X43.4Y27.4
X43.4Y18.6
X43.4Y15.4
X43.4Y6.6
X43.4Y3.4
X44.9Y30.6
X44.9Y27.4
X44.9Y18.6
X44.9Y15.4
X44.9Y6.6
X44.9Y3.4
X46.4Y30.6
X46.4Y27.4
X46.4Y18.6
X46.4Y15.4
X46.4Y6.6
X46.4Y3.4
X47.9Y30.6
X47.9Y27.4
X47.9Y18.6
X47.9Y15.4
X47.9Y6.6
X47.9Y3.4
X49.4Y30.6
X49.4Y27.4
X49.4Y18.6
X49.4Y15.4
X49.4Y6.6
X49.4Y3.4
X50.9Y30.6
X50.9Y27.4
X50.9Y18.6
X50.9Y15.4
X50.9Y6.6
X50.9Y3.4
X52.4Y30.6
X52.4Y27.4
X52.4Y18.6
X52.4Y15.4
X52.4Y6.6
X52.4Y3.4
X53.9Y18.6
X53.9Y15.4
X55.2Y30.6
X55.2Y27.4
X55.2Y18.6
X55.2Y15.4
X55.2Y6.6
X55.2Y3.4
X56.7Y30.6
X56.7Y27.4
X56.7Y18.6
X56.7Y15.4
X56.7Y6.6
X56.7Y3.4
X58.2Y30.6
X58.2Y27.4
X58.2Y18.6
X58.2Y15.4
X58.2Y6.6
X58.2Y3.4
M30
