%TF.GenerationSoftware,KiCad,Pcbnew,10.0.3*%
%TF.CreationDate,2026-06-11T20:06:06-04:00*%
%TF.ProjectId,COUPON_SMA_THRU_v2,434f5550-4f4e-45f5-934d-415f54485255,rev?*%
%TF.SameCoordinates,PX62ccf80PY69db9c0*%
%TF.FileFunction,Copper,L2,Inr*%
%TF.FilePolarity,Positive*%
%FSLAX46Y46*%
G04 Gerber Fmt 4.6, Leading zero omitted, Abs format (unit mm)*
G04 Created by KiCad (PCBNEW 10.0.3) date 2026-06-11 20:06:06*
%MOMM*%
%LPD*%
G01*
G04 APERTURE LIST*
%TA.AperFunction,ViaPad*%
%ADD10C,0.600000*%
%TD*%
G04 APERTURE END LIST*
D10*
%TO.N,GND*%
X53900000Y15400000D03*
X53900000Y18600000D03*
X58200000Y6600000D03*
X58200000Y3400000D03*
X55200000Y6600000D03*
X56700000Y3400000D03*
X55200000Y3400000D03*
X56700000Y6600000D03*
X55200000Y15400000D03*
X56700000Y15400000D03*
X56700000Y18600000D03*
X58200000Y15400000D03*
X55200000Y18600000D03*
X58200000Y18600000D03*
X56700000Y30600000D03*
X56700000Y27400000D03*
X55200000Y27400000D03*
X58200000Y27400000D03*
X55200000Y30600000D03*
X58200000Y30600000D03*
X52400000Y15400000D03*
X34400000Y18600000D03*
X50900000Y15400000D03*
X28400000Y15400000D03*
X46400000Y18600000D03*
X44900000Y15400000D03*
X10400000Y18600000D03*
X11900000Y18600000D03*
X38900000Y18600000D03*
X10400000Y15400000D03*
X26900000Y18600000D03*
X35900000Y15400000D03*
X47900000Y18600000D03*
X31400000Y15400000D03*
X16400000Y15400000D03*
X25400000Y15400000D03*
X17900000Y18600000D03*
X25400000Y18600000D03*
X11900000Y15400000D03*
X34400000Y15400000D03*
X40400000Y15400000D03*
X28400000Y18600000D03*
X49400000Y15400000D03*
X41900000Y15400000D03*
X20900000Y15400000D03*
X43400000Y18600000D03*
X7400000Y18600000D03*
X32900000Y15400000D03*
X23900000Y15400000D03*
X35900000Y18600000D03*
X22400000Y18600000D03*
X26900000Y15400000D03*
X32900000Y18600000D03*
X37400000Y18600000D03*
X29900000Y18600000D03*
X52400000Y18600000D03*
X47900000Y15400000D03*
X44900000Y18600000D03*
X38900000Y15400000D03*
X31400000Y18600000D03*
X14900000Y18600000D03*
X20900000Y18600000D03*
X46400000Y15400000D03*
X22400000Y15400000D03*
X13400000Y15400000D03*
X29900000Y15400000D03*
X49400000Y18600000D03*
X41900000Y18600000D03*
X7400000Y15400000D03*
X37400000Y15400000D03*
X23900000Y18600000D03*
X17900000Y15400000D03*
X5900000Y18600000D03*
X40400000Y18600000D03*
X5900000Y15400000D03*
X4000000Y18600000D03*
X1000000Y15400000D03*
X1000000Y18600000D03*
X2500000Y15400000D03*
X2500000Y18600000D03*
X4000000Y15400000D03*
X50900000Y18600000D03*
X8900000Y15400000D03*
X14900000Y15400000D03*
X43400000Y15400000D03*
X19400000Y18600000D03*
X13400000Y18600000D03*
X8900000Y18600000D03*
X16400000Y18600000D03*
X19400000Y15400000D03*
X52400000Y27400000D03*
X34400000Y30600000D03*
X50900000Y27400000D03*
X28400000Y27400000D03*
X46400000Y30600000D03*
X44900000Y27400000D03*
X10400000Y30600000D03*
X11900000Y30600000D03*
X38900000Y30600000D03*
X10400000Y27400000D03*
X26900000Y30600000D03*
X35900000Y27400000D03*
X47900000Y30600000D03*
X31400000Y27400000D03*
X16400000Y27400000D03*
X25400000Y27400000D03*
X17900000Y30600000D03*
X25400000Y30600000D03*
X11900000Y27400000D03*
X34400000Y27400000D03*
X40400000Y27400000D03*
X28400000Y30600000D03*
X49400000Y27400000D03*
X41900000Y27400000D03*
X20900000Y27400000D03*
X43400000Y30600000D03*
X7400000Y30600000D03*
X32900000Y27400000D03*
X23900000Y27400000D03*
X35900000Y30600000D03*
X22400000Y30600000D03*
X26900000Y27400000D03*
X32900000Y30600000D03*
X37400000Y30600000D03*
X29900000Y30600000D03*
X52400000Y30600000D03*
X47900000Y27400000D03*
X44900000Y30600000D03*
X38900000Y27400000D03*
X31400000Y30600000D03*
X14900000Y30600000D03*
X20900000Y30600000D03*
X46400000Y27400000D03*
X22400000Y27400000D03*
X13400000Y27400000D03*
X29900000Y27400000D03*
X49400000Y30600000D03*
X41900000Y30600000D03*
X7400000Y27400000D03*
X37400000Y27400000D03*
X23900000Y30600000D03*
X17900000Y27400000D03*
X5900000Y30600000D03*
X40400000Y30600000D03*
X5900000Y27400000D03*
X4000000Y30600000D03*
X1000000Y27400000D03*
X2500000Y30600000D03*
X2500000Y27400000D03*
X1000000Y30600000D03*
X4000000Y27400000D03*
X50900000Y30600000D03*
X8900000Y27400000D03*
X14900000Y27400000D03*
X43400000Y27400000D03*
X19400000Y30600000D03*
X13400000Y30600000D03*
X8900000Y30600000D03*
X16400000Y30600000D03*
X19400000Y27400000D03*
X19400000Y3400000D03*
X16400000Y6600000D03*
X8900000Y6600000D03*
X13400000Y6600000D03*
X19400000Y6600000D03*
X43400000Y3400000D03*
X14900000Y3400000D03*
X8900000Y3400000D03*
X50900000Y6600000D03*
X4000000Y6600000D03*
X1000000Y3400000D03*
X1000000Y6600000D03*
X2500000Y6600000D03*
X2500000Y3400000D03*
X4000000Y3400000D03*
X5900000Y3400000D03*
X40400000Y6600000D03*
X5900000Y6600000D03*
X17900000Y3400000D03*
X23900000Y6600000D03*
X37400000Y3400000D03*
X7400000Y3400000D03*
X41900000Y6600000D03*
X49400000Y6600000D03*
X29900000Y3400000D03*
X13400000Y3400000D03*
X22400000Y3400000D03*
X46400000Y3400000D03*
X20900000Y6600000D03*
X14900000Y6600000D03*
X31400000Y6600000D03*
X38900000Y3400000D03*
X44900000Y6600000D03*
X47900000Y3400000D03*
X52400000Y6600000D03*
X29900000Y6600000D03*
X37400000Y6600000D03*
X32900000Y6600000D03*
X26900000Y3400000D03*
X22400000Y6600000D03*
X35900000Y6600000D03*
X23900000Y3400000D03*
X32900000Y3400000D03*
X7400000Y6600000D03*
X43400000Y6600000D03*
X20900000Y3400000D03*
X41900000Y3400000D03*
X49400000Y3400000D03*
X28400000Y6600000D03*
X40400000Y3400000D03*
X34400000Y3400000D03*
X11900000Y3400000D03*
X25400000Y6600000D03*
X17900000Y6600000D03*
X25400000Y3400000D03*
X16400000Y3400000D03*
X31400000Y3400000D03*
X47900000Y6600000D03*
X35900000Y3400000D03*
X26900000Y6600000D03*
X10400000Y3400000D03*
X38900000Y6600000D03*
X11900000Y6600000D03*
X10400000Y6600000D03*
X44900000Y3400000D03*
X46400000Y6600000D03*
X28400000Y3400000D03*
X50900000Y3400000D03*
X34400000Y6600000D03*
X52400000Y3400000D03*
%TD*%
%TA.AperFunction,Conductor*%
%TO.N,GND*%
G36*
X58742539Y33579815D02*
G01*
X58788294Y33527011D01*
X58799500Y33475500D01*
X58799500Y30424000D01*
X58779815Y30356961D01*
X58727011Y30311206D01*
X58675500Y30300000D01*
X54600000Y30300000D01*
X54600000Y27700000D01*
X58675500Y27700000D01*
X58742539Y27680315D01*
X58788294Y27627511D01*
X58799500Y27576000D01*
X58799500Y18424000D01*
X58779815Y18356961D01*
X58727011Y18311206D01*
X58675500Y18300000D01*
X54600000Y18300000D01*
X54600000Y15700000D01*
X58675500Y15700000D01*
X58742539Y15680315D01*
X58788294Y15627511D01*
X58799500Y15576000D01*
X58799500Y6424000D01*
X58779815Y6356961D01*
X58727011Y6311206D01*
X58675500Y6300000D01*
X54600000Y6300000D01*
X54600000Y3700000D01*
X58675500Y3700000D01*
X58742539Y3680315D01*
X58788294Y3627511D01*
X58799500Y3576000D01*
X58799500Y524500D01*
X58779815Y457461D01*
X58727011Y411706D01*
X58675500Y400500D01*
X524500Y400500D01*
X457461Y420185D01*
X411706Y472989D01*
X400500Y524500D01*
X400500Y3576000D01*
X420185Y3643039D01*
X472989Y3688794D01*
X524500Y3700000D01*
X4600000Y3700000D01*
X4600000Y6300000D01*
X524500Y6300000D01*
X457461Y6319685D01*
X411706Y6372489D01*
X400500Y6424000D01*
X400500Y15576000D01*
X420185Y15643039D01*
X472989Y15688794D01*
X524500Y15700000D01*
X4600000Y15700000D01*
X4600000Y18300000D01*
X524500Y18300000D01*
X457461Y18319685D01*
X411706Y18372489D01*
X400500Y18424000D01*
X400500Y27576000D01*
X420185Y27643039D01*
X472989Y27688794D01*
X524500Y27700000D01*
X4600000Y27700000D01*
X4600000Y30300000D01*
X524500Y30300000D01*
X457461Y30319685D01*
X411706Y30372489D01*
X400500Y30424000D01*
X400500Y33475500D01*
X420185Y33542539D01*
X472989Y33588294D01*
X524500Y33599500D01*
X58675500Y33599500D01*
X58742539Y33579815D01*
G37*
%TD.AperFunction*%
%TD*%
M02*
